<svg xmlns="http://www.w3.org/2000/svg" width="1280" height="720" viewBox="0 0 1280 720" role="img" aria-label="FenPing scan screenshot">
  <rect width="1280" height="720" fill="#0b1118"/>
  <rect x="0" y="0" width="1280" height="720" fill="#111820" opacity="0.66"/>
  <rect x="96" y="64" width="1088" height="592" rx="9" fill="#17212d" stroke="#334155"/>
  <rect x="96" y="64" width="1088" height="58" rx="9" fill="#202b3a"/>
  <text x="128" y="101" fill="#f8fafc" font-family="Arial, sans-serif" font-size="21" font-weight="700">Scan 10.10.10.8</text>
  <text x="1150" y="101" fill="#94a3b8" font-family="Arial, sans-serif" font-size="22">x</text>

  <text x="128" y="160" fill="#f8fafc" font-family="monospace" font-size="18" font-weight="700">10.10.10.8</text>
  <text x="128" y="184" fill="#94a3b8" font-family="Arial, sans-serif" font-size="13">nmap -T2 -A -p- -sS -v</text>
  <rect x="828" y="145" width="236" height="34" rx="5" fill="#0f172a" stroke="#334155"/>
  <text x="845" y="167" fill="#cbd5e1" font-family="Arial, sans-serif" font-size="13">2026-07-08 quick up 4p</text>
  <rect x="1080" y="145" width="72" height="34" rx="6" fill="#1f2d3d" stroke="#41536a"/>
  <text x="1102" y="167" fill="#cbd5e1" font-family="Arial, sans-serif" font-size="14">XML</text>

  <g font-family="Arial, sans-serif">
    <rect x="128" y="210" width="312" height="74" rx="8" fill="#202b3a" stroke="#334155"/>
    <text x="150" y="236" fill="#94a3b8" font-size="12" font-weight="700">STATUS</text>
    <text x="150" y="266" fill="#86efac" font-size="22" font-weight="700">up</text>
    <rect x="462" y="210" width="312" height="74" rx="8" fill="#202b3a" stroke="#334155"/>
    <text x="484" y="236" fill="#94a3b8" font-size="12" font-weight="700">MODE</text>
    <text x="484" y="266" fill="#f8fafc" font-size="22" font-weight="700">quick</text>
    <rect x="796" y="210" width="312" height="74" rx="8" fill="#202b3a" stroke="#334155"/>
    <text x="818" y="236" fill="#94a3b8" font-size="12" font-weight="700">PORTS</text>
    <text x="818" y="266" fill="#f8fafc" font-size="22" font-weight="700">4</text>
  </g>

  <line x1="128" y1="320" x2="1152" y2="320" stroke="#334155"/>
  <text x="128" y="350" fill="#f8fafc" font-family="Arial, sans-serif" font-size="15" font-weight="700">ADDRESSES</text>
  <rect x="128" y="366" width="1024" height="78" rx="6" fill="#17212d"/>
  <text x="150" y="393" fill="#94a3b8" font-family="Arial, sans-serif" font-size="14">ipv4</text>
  <text x="290" y="393" fill="#f8fafc" font-family="monospace" font-size="14">10.10.10.8</text>
  <text x="150" y="423" fill="#94a3b8" font-family="Arial, sans-serif" font-size="14">mac</text>
  <text x="290" y="423" fill="#f8fafc" font-family="monospace" font-size="14">58:11:22:33:44:55</text>
  <text x="520" y="423" fill="#94a3b8" font-family="Arial, sans-serif" font-size="14">Synology Incorporated</text>

  <line x1="128" y1="474" x2="1152" y2="474" stroke="#334155"/>
  <text x="128" y="504" fill="#f8fafc" font-family="Arial, sans-serif" font-size="15" font-weight="700">PORTS</text>
  <rect x="128" y="520" width="1024" height="37" fill="#233044"/>
  <text x="150" y="544" fill="#f8fafc" font-family="Arial, sans-serif" font-size="13" font-weight="700">PORT</text>
  <text x="314" y="544" fill="#f8fafc" font-family="Arial, sans-serif" font-size="13" font-weight="700">STATE</text>
  <text x="484" y="544" fill="#f8fafc" font-family="Arial, sans-serif" font-size="13" font-weight="700">SERVICE</text>
  <text x="684" y="544" fill="#f8fafc" font-family="Arial, sans-serif" font-size="13" font-weight="700">DETAILS</text>

  <g font-family="Arial, sans-serif" font-size="14">
    <rect x="128" y="557" width="1024" height="34" fill="#17212d"/>
    <text x="150" y="579" fill="#f8fafc" font-family="monospace">22/tcp</text>
    <rect x="314" y="562" width="58" height="23" rx="12" fill="#dcfce7"/><text x="328" y="579" fill="#15803d" font-weight="700">open</text>
    <text x="484" y="579" fill="#cbd5e1">ssh</text>
    <text x="684" y="579" fill="#94a3b8">OpenSSH 9.8</text>

    <rect x="128" y="591" width="1024" height="34" fill="#17212d"/>
    <text x="150" y="613" fill="#f8fafc" font-family="monospace">80/tcp</text>
    <rect x="314" y="596" width="58" height="23" rx="12" fill="#dcfce7"/><text x="328" y="613" fill="#15803d" font-weight="700">open</text>
    <text x="484" y="613" fill="#cbd5e1">http</text>
    <text x="684" y="613" fill="#94a3b8">nginx admin portal</text>
  </g>
</svg>
