<svg xmlns="http://www.w3.org/2000/svg" width="1280" height="720" viewBox="0 0 1280 720" role="img" aria-label="FenPing netboot screenshot">
  <rect width="1280" height="720" fill="#111820"/>
  <rect x="0" y="0" width="1280" height="68" fill="#182433"/>
  <text x="48" y="31" fill="#f8fafc" font-family="Arial, sans-serif" font-size="23" font-weight="700">FenPing</text>
  <text x="48" y="52" fill="#94a3b8" font-family="Arial, sans-serif" font-size="14">10.10.10</text>
  <rect x="826" y="18" width="34" height="34" rx="6" fill="#1d4ed8"/>
  <text x="838" y="41" fill="#dbeafe" font-family="Arial, sans-serif" font-size="17">S</text>
  <rect x="878" y="18" width="72" height="34" rx="17" fill="#143a2a"/>
  <text x="895" y="40" fill="#86efac" font-family="Arial, sans-serif" font-size="14" font-weight="700">Admin</text>
  <rect x="1114" y="18" width="34" height="34" rx="6" fill="#1d4ed8"/>
  <text x="1126" y="41" fill="#dbeafe" font-family="Arial, sans-serif" font-size="17">R</text>
  <text x="1158" y="40" fill="#94a3b8" font-family="Arial, sans-serif" font-size="14">Netboot</text>

  <text x="64" y="118" fill="#f8fafc" font-family="Arial, sans-serif" font-size="24" font-weight="700">Netboot Images</text>
  <text x="64" y="142" fill="#94a3b8" font-family="Arial, sans-serif" font-size="14">Boot files served from /netboot</text>
  <rect x="1112" y="108" width="96" height="34" rx="6" fill="#1f2d3d" stroke="#41536a"/>
  <text x="1131" y="130" fill="#cbd5e1" font-family="Arial, sans-serif" font-size="14">Refresh</text>

  <rect x="64" y="170" width="1152" height="82" rx="8" fill="#17212d" stroke="#334155"/>
  <text x="84" y="196" fill="#f8fafc" font-family="Arial, sans-serif" font-size="13" font-weight="700">Name</text>
  <rect x="84" y="206" width="260" height="31" rx="5" fill="#0f172a" stroke="#334155"/>
  <text x="98" y="227" fill="#64748b" font-family="Arial, sans-serif" font-size="13">Ubuntu installer</text>
  <text x="380" y="196" fill="#f8fafc" font-family="Arial, sans-serif" font-size="13" font-weight="700">File</text>
  <rect x="380" y="206" width="560" height="31" rx="5" fill="#0f172a" stroke="#334155"/>
  <text x="396" y="227" fill="#cbd5e1" font-family="Arial, sans-serif" font-size="13">ubuntu-26.04-netboot.ipxe</text>
  <rect x="970" y="205" width="94" height="34" rx="6" fill="#1d4ed8"/>
  <text x="994" y="227" fill="#dbeafe" font-family="Arial, sans-serif" font-size="14" font-weight="700">Upload</text>

  <rect x="64" y="282" width="1152" height="290" rx="8" fill="#17212d" stroke="#334155"/>
  <rect x="64" y="282" width="1152" height="40" rx="8" fill="#233044"/>
  <text x="88" y="307" fill="#f8fafc" font-family="Arial, sans-serif" font-size="13" font-weight="700">NAME</text>
  <text x="320" y="307" fill="#f8fafc" font-family="Arial, sans-serif" font-size="13" font-weight="700">FILE</text>
  <text x="800" y="307" fill="#f8fafc" font-family="Arial, sans-serif" font-size="13" font-weight="700">SIZE</text>
  <text x="900" y="307" fill="#f8fafc" font-family="Arial, sans-serif" font-size="13" font-weight="700">HOSTS</text>
  <text x="1000" y="307" fill="#f8fafc" font-family="Arial, sans-serif" font-size="13" font-weight="700">CREATED</text>

  <g font-family="Arial, sans-serif" font-size="15">
    <rect x="64" y="322" width="1152" height="48" fill="#17212d"/>
    <text x="88" y="346" fill="#f8fafc" font-weight="700">Ubuntu installer</text>
    <text x="88" y="363" fill="#94a3b8" font-size="12">ubuntu-26.04-netboot.ipxe</text>
    <text x="320" y="353" fill="#60a5fa" font-family="monospace">20260708141033-ubuntu-26.04-netboot.ipxe</text>
    <text x="800" y="353" fill="#cbd5e1">2.1 MB</text>
    <text x="900" y="353" fill="#cbd5e1">3</text>
    <text x="1000" y="353" fill="#cbd5e1">2026-07-08 14:10</text>
    <rect x="1160" y="333" width="28" height="28" rx="5" fill="#3f1d26" stroke="#dc2626"/>
    <text x="1169" y="353" fill="#fecaca" font-size="14">x</text>

    <rect x="64" y="370" width="1152" height="48" fill="#17212d"/>
    <text x="88" y="394" fill="#f8fafc" font-weight="700">Memtest</text>
    <text x="88" y="411" fill="#94a3b8" font-size="12">memtest64.efi</text>
    <text x="320" y="401" fill="#60a5fa" font-family="monospace">20260707185502-memtest64.efi</text>
    <text x="800" y="401" fill="#cbd5e1">370 KB</text>
    <text x="900" y="401" fill="#cbd5e1">1</text>
    <text x="1000" y="401" fill="#cbd5e1">2026-07-07 18:55</text>
    <rect x="1160" y="381" width="28" height="28" rx="5" fill="#3f1d26" stroke="#dc2626"/>
    <text x="1169" y="401" fill="#fecaca" font-size="14">x</text>
  </g>

  <rect x="270" y="468" width="740" height="116" rx="8" fill="#1d2838" stroke="#334155"/>
  <text x="304" y="503" fill="#f8fafc" font-family="Arial, sans-serif" font-size="18" font-weight="700">Host editor</text>
  <text x="304" y="535" fill="#94a3b8" font-family="Arial, sans-serif" font-size="14">Each host can choose one uploaded netboot image or None.</text>
  <rect x="650" y="512" width="300" height="36" rx="5" fill="#0f172a" stroke="#334155"/>
  <text x="668" y="535" fill="#cbd5e1" font-family="Arial, sans-serif" font-size="14">Ubuntu installer (ipxe)</text>
</svg>
