<svg xmlns="http://www.w3.org/2000/svg" width="1280" height="720" viewBox="0 0 1280 720" role="img" aria-label="FenPing notify screenshot">
  <rect width="1280" height="720" fill="#111820"/>
  <rect x="0" y="0" width="1280" height="68" fill="#182433"/>
  <text x="48" y="31" fill="#f8fafc" font-family="Arial, sans-serif" font-size="23" font-weight="700">FenPing</text>
  <text x="48" y="52" fill="#94a3b8" font-family="Arial, sans-serif" font-size="14">10.10.10</text>
  <rect x="784" y="18" width="34" height="34" rx="6" fill="#1f2d3d" stroke="#41536a"/>
  <text x="796" y="41" fill="#cbd5e1" font-family="Arial, sans-serif" font-size="17">L</text>
  <rect x="826" y="18" width="34" height="34" rx="6" fill="#1d4ed8"/>
  <text x="838" y="41" fill="#dbeafe" font-family="Arial, sans-serif" font-size="17">B</text>
  <rect x="878" y="18" width="72" height="34" rx="17" fill="#143a2a"/>
  <text x="895" y="40" fill="#86efac" font-family="Arial, sans-serif" font-size="14" font-weight="700">Admin</text>
  <rect x="1114" y="18" width="34" height="34" rx="6" fill="#1d4ed8"/>
  <text x="1126" y="41" fill="#dbeafe" font-family="Arial, sans-serif" font-size="17">R</text>
  <text x="1158" y="40" fill="#94a3b8" font-family="Arial, sans-serif" font-size="14">Notify</text>

  <text x="64" y="118" fill="#f8fafc" font-family="Arial, sans-serif" font-size="24" font-weight="700">Notify</text>
  <text x="64" y="142" fill="#94a3b8" font-family="Arial, sans-serif" font-size="14">Last 24h of status changes</text>
  <rect x="1112" y="108" width="96" height="34" rx="6" fill="#1f2d3d" stroke="#41536a"/>
  <text x="1131" y="130" fill="#cbd5e1" font-family="Arial, sans-serif" font-size="14">Refresh</text>

  <g font-family="Arial, sans-serif">
    <rect x="64" y="170" width="760" height="74" rx="8" fill="#17212d" stroke="#334155"/>
    <line x1="216" y1="170" x2="216" y2="244" stroke="#334155"/>
    <line x1="368" y1="170" x2="368" y2="244" stroke="#334155"/>
    <line x1="520" y1="170" x2="520" y2="244" stroke="#334155"/>
    <line x1="672" y1="170" x2="672" y2="244" stroke="#334155"/>
    <text x="86" y="197" fill="#94a3b8" font-size="13" font-weight="700">TOTAL</text>
    <text x="86" y="226" fill="#f8fafc" font-size="24" font-weight="700">12</text>
    <text x="238" y="197" fill="#94a3b8" font-size="13" font-weight="700">HOSTS</text>
    <text x="238" y="226" fill="#f8fafc" font-size="24" font-weight="700">7</text>
    <text x="390" y="197" fill="#94a3b8" font-size="13" font-weight="700">UP</text>
    <text x="390" y="226" fill="#86efac" font-size="24" font-weight="700">5</text>
    <text x="542" y="197" fill="#94a3b8" font-size="13" font-weight="700">DOWN</text>
    <text x="542" y="226" fill="#fca5a5" font-size="24" font-weight="700">4</text>
    <text x="694" y="197" fill="#94a3b8" font-size="13" font-weight="700">ARP</text>
    <text x="694" y="226" fill="#93c5fd" font-size="24" font-weight="700">3</text>
  </g>

  <rect x="64" y="274" width="1152" height="334" rx="8" fill="#17212d" stroke="#334155"/>
  <rect x="64" y="274" width="1152" height="40" rx="8" fill="#233044"/>
  <text x="90" y="299" fill="#f8fafc" font-family="Arial, sans-serif" font-size="13" font-weight="700">TIME</text>
  <text x="310" y="299" fill="#f8fafc" font-family="Arial, sans-serif" font-size="13" font-weight="700">HOST</text>
  <text x="660" y="299" fill="#f8fafc" font-family="Arial, sans-serif" font-size="13" font-weight="700">CHANGE</text>
  <text x="1032" y="299" fill="#f8fafc" font-family="Arial, sans-serif" font-size="13" font-weight="700">DURATION</text>

  <g font-family="Arial, sans-serif" font-size="15">
    <rect x="64" y="314" width="1152" height="54" fill="#17212d"/>
    <text x="90" y="337" fill="#f8fafc">2026-07-08 14:22</text>
    <text x="90" y="356" fill="#94a3b8" font-size="12">2m ago</text>
    <text x="310" y="337" fill="#60a5fa" font-weight="700">camera-east</text>
    <text x="310" y="356" fill="#94a3b8" font-family="monospace" font-size="12">10.10.10.44 aa:bb:cc:dd:ee:ff</text>
    <circle cx="670" cy="341" r="12" fill="#16a34a"/><text x="666" y="346" fill="#fff" font-size="14">v</text>
    <text x="698" y="346" fill="#94a3b8">to</text>
    <circle cx="728" cy="341" r="12" fill="#dc2626"/><text x="724" y="346" fill="#fff" font-size="14">x</text>
    <text x="758" y="346" fill="#f8fafc" font-weight="700">Down</text>
    <text x="1032" y="346" fill="#cbd5e1">2m current</text>

    <rect x="64" y="368" width="1152" height="54" fill="#3e2428"/>
    <text x="90" y="391" fill="#f8fafc">2026-07-08 13:46</text>
    <text x="90" y="410" fill="#94a3b8" font-size="12">38m ago</text>
    <text x="310" y="391" fill="#60a5fa" font-weight="700">nas</text>
    <text x="310" y="410" fill="#94a3b8" font-family="monospace" font-size="12">10.10.10.8 58:11:22:33:44:55</text>
    <circle cx="670" cy="395" r="12" fill="#dc2626"/><text x="666" y="400" fill="#fff" font-size="14">x</text>
    <text x="698" y="400" fill="#94a3b8">to</text>
    <circle cx="728" cy="395" r="12" fill="#16a34a"/><text x="724" y="400" fill="#fff" font-size="14">v</text>
    <text x="758" y="400" fill="#f8fafc" font-weight="700">Up</text>
    <text x="1032" y="400" fill="#cbd5e1">12m</text>

    <rect x="64" y="422" width="1152" height="54" fill="#17212d"/>
    <text x="90" y="445" fill="#f8fafc">2026-07-08 09:10</text>
    <text x="90" y="464" fill="#94a3b8" font-size="12">5h ago</text>
    <text x="310" y="445" fill="#60a5fa" font-weight="700">tablet</text>
    <text x="310" y="464" fill="#94a3b8" font-family="monospace" font-size="12">10.10.10.32 10:22:33:44:55:66</text>
    <circle cx="670" cy="449" r="12" fill="#2563eb"/><text x="661" y="454" fill="#fff" font-size="11">arp</text>
    <text x="698" y="454" fill="#94a3b8">to</text>
    <circle cx="728" cy="449" r="12" fill="#16a34a"/><text x="724" y="454" fill="#fff" font-size="14">v</text>
    <text x="758" y="454" fill="#f8fafc" font-weight="700">Up</text>
    <text x="1032" y="454" fill="#cbd5e1">5h 8m</text>
  </g>
</svg>
